<svg viewBox="0 0 235 301" fill="none" xmlns="http://www.w3.org/2000/svg">
    <path 
      fillRule="evenodd" 
      clipRule="evenodd" 
      d="M44.7134 68.3961C44.7134 68.3961 37.8228 21.2449 79.3804 14.4081L106.08 14.6437L106.51 44.5845H128.904L128.689 23.3662C128.689 23.3662 129.119 4.97696 152.243 5.60372C152.243 5.60372 151.708 0.680437 147.427 0.211938C143.144 -0.256562 72.5973 1.85303 72.5973 1.85303C72.5973 1.85303 26.6252 9.45961 21.8879 44.3516C17.1507 79.2435 23.395 96.453 51.1721 111.306C51.1721 111.306 6.8163 123.8 1.00234 166.472C-4.8108 209.143 19.7353 234.605 49.4498 242.148L151.512 244.506L151.942 238.612C151.942 238.612 128.472 241.441 128.041 222.817C127.611 204.193 127.181 69.8133 127.181 69.8133C127.181 69.8133 156.249 66.2766 170.029 77.5934C183.81 88.9093 200.605 116.729 178.427 153.27C178.427 153.27 171.537 167.887 139.885 168.123V173.545C139.885 173.545 170.245 168.83 193.93 191.698C193.93 191.698 223.213 222.345 197.591 270.911C197.591 270.911 190.057 285.292 167.448 287.414H127.398L127.828 261.481H106.726V278.219C106.726 278.219 108.018 294.486 82.3945 296.372V300.144L183.381 299.673C183.381 299.673 225.584 291.421 232.26 253.936C232.26 253.936 239.796 228.71 224.724 200.184C224.724 200.184 209.866 171.657 182.305 169.535C182.305 169.535 209.651 158.691 214.173 127.335C218.695 95.98 198.239 61.088 163.788 58.9659L81.965 58.2582V64.6238H92.085C92.085 64.6238 106.081 66.9816 105.866 86.0777C105.65 105.174 105.866 229.653 105.866 229.653L62.5857 230.596C62.5857 230.596 25.3349 224.467 26.1965 173.308C26.1965 173.308 22.5359 116.018 95.9616 118.141V109.889C95.9616 109.889 51.3898 116.255 44.7142 68.3961H44.7134Z" 
      fill="#8c1d18" 
      stroke="#8c1d18" 
      strokeWidth="0.288" 
      strokeMiterlimit="2.61313" 
      strokeLinecap="round" 
      strokeLinejoin="round"/>
  </svg>
